<svg width="462" height="445" viewBox="0 0 462 445" fill="none" xmlns="http://www.w3.org/2000/svg">
<g filter="url(#filter0_f_730_1515)">
<path d="M277.368 230.658C277.53 234.499 277.488 238.357 277.243 242.231C276.584 246.096 275.718 249.933 274.645 253.743C273.163 257.453 271.48 261.093 269.598 264.66C267.329 268.04 264.876 271.306 262.24 274.458C259.259 277.341 256.12 280.07 252.822 282.646C249.239 284.88 245.532 286.927 241.7 288.788C237.658 290.248 233.532 291.495 229.322 292.53C224.989 293.121 220.617 293.483 216.208 293.616C211.772 293.281 207.347 292.71 202.933 291.902C198.592 290.624 194.312 289.114 190.095 287.372C186.05 285.177 182.117 282.765 178.294 280.136C174.741 277.094 171.344 273.86 168.103 270.434C165.218 266.655 162.529 262.719 160.037 258.626C157.972 254.259 156.136 249.777 154.53 245.181C153.406 240.405 152.534 235.564 151.913 230.658C151.81 225.676 151.971 220.684 152.395 215.681C153.35 210.713 154.568 205.791 156.05 200.914C158.051 196.186 160.303 191.559 162.808 187.033C165.795 182.765 169.011 178.651 172.455 174.691C176.323 171.09 180.385 167.69 184.64 164.492C189.24 161.739 193.989 159.228 198.887 156.957C204.032 155.202 209.274 153.717 214.612 152.504C220.085 151.853 225.597 151.491 231.146 151.418C236.711 151.932 242.251 152.74 247.768 153.843C253.175 155.531 258.496 157.505 263.731 159.766C268.733 162.583 273.589 165.665 278.299 169.014C282.66 172.863 286.82 176.945 290.78 181.259C294.287 185.996 297.546 190.92 300.556 196.031C303.03 201.465 305.218 207.031 307.121 212.731C308.423 218.636 309.414 224.611 310.095 230.658C310.138 236.781 309.858 242.908 309.255 249.039C308.005 255.111 306.434 261.118 304.543 267.061C302.024 272.807 299.201 278.423 296.075 283.906C292.369 289.062 288.39 294.024 284.139 298.791C279.383 303.112 274.399 307.182 269.186 311.003C263.568 314.274 257.778 317.25 251.814 319.929C245.565 321.981 239.209 323.702 232.743 325.095C226.129 325.805 219.477 326.167 212.787 326.18C206.095 325.488 199.439 324.442 192.819 323.043C186.346 320.947 179.984 318.508 173.731 315.729C167.771 312.29 161.993 308.537 156.396 304.469C151.227 299.812 146.304 294.882 141.626 289.68C137.497 283.985 133.668 278.073 130.139 271.944C127.256 265.444 124.715 258.792 122.517 251.989C121.036 244.956 119.926 237.846 119.186 230.658C119.203 223.394 119.602 216.133 120.383 208.873C121.929 201.698 123.852 194.606 126.152 187.596C129.19 180.832 132.583 174.229 136.331 167.787C140.755 161.743 145.497 155.933 150.556 150.358C156.199 145.319 162.106 140.578 168.277 136.135C174.912 132.345 181.744 128.905 188.774 125.816C196.125 123.469 203.597 121.51 211.191 119.939C218.945 119.169 226.737 118.807 234.567 118.854C242.387 119.725 250.159 121.008 257.881 122.702C265.421 125.208 272.825 128.111 280.095 131.409C287.012 135.47 293.713 139.894 300.198 144.68C306.174 150.146 311.86 155.923 317.256 162.013C322.008 168.666 326.407 175.566 330.454 182.713C333.747 190.28 336.639 198.017 339.133 205.923C340.792 214.085 342.022 222.33 342.822 230.658C342.745 239.063 342.227 247.459 341.267 255.847C339.426 264.125 337.15 272.303 334.441 280.379C330.885 288.161 326.922 295.753 322.552 303.152C317.409 310.084 311.904 316.742 306.038 323.125C299.507 328.883 292.678 334.295 285.549 339.36C277.897 343.668 270.023 347.572 261.927 351.071C253.473 353.713 244.885 355.909 236.164 357.659C227.269 358.489 218.337 358.851 209.366 358.745C200.419 357.695 191.532 356.175 182.706 354.185C174.101 351.269 165.655 347.903 157.368 344.086C149.493 339.402 141.869 334.308 134.497 328.803C127.713 322.529 121.264 315.904 115.149 308.926C109.776 301.315 104.807 293.427 100.241 285.262C96.5395 276.629 93.2944 267.807 90.5054 258.797C88.6671 249.507 87.3181 240.127 86.4585 230.658C86.5948 221.113 87.2324 211.582 88.3713 202.065C90.5079 192.683 93.1357 183.421 96.2545 174.278C100.329 165.478 104.862 156.899 109.854 148.541C115.716 140.721 121.984 133.216 128.657 126.025C136.075 119.547 143.827 113.465 151.913 107.778C160.583 102.951 169.499 98.5831 178.661 94.6751C188.218 91.7369 197.921 89.3035 207.77 87.3749C217.805 86.4849 227.877 86.1231 237.988 86.2894C248.064 87.5182 258.066 89.2754 267.995 91.561C277.666 94.8861 287.154 98.7164 296.458 103.052C305.291 108.358 313.837 114.123 322.097 120.347C329.688 127.428 336.9 134.901 343.733 142.767C349.728 151.336 355.268 160.212 360.352 169.395C364.463 179.095 368.06 189.002 371.145 199.115C373.162 209.534 374.63 220.048 375.549 230.658C375.353 241.344 374.596 252.01 373.279 262.655C370.847 273.14 367.867 283.488 364.339 293.697C359.746 303.515 354.643 313.083 349.029 322.399C342.448 331.106 335.417 339.459 327.936 347.458C319.631 354.655 310.957 361.407 301.913 367.716C292.226 373.063 282.268 377.894 272.04 382.212C261.38 385.446 250.562 388.116 239.585 390.223C228.41 391.173 217.197 391.535 205.945 391.309C194.742 389.901 183.625 387.907 172.593 385.326C161.856 381.591 151.326 377.297 141.004 372.443C131.214 366.515 121.745 360.079 112.598 353.136C104.2 345.247 96.2245 336.926 88.6724 328.173C82.0554 318.645 75.9456 308.781 70.343 298.58C65.8232 287.814 61.8733 276.822 58.4933 265.605C56.2977 254.058 54.7104 242.409 53.7312 230.658C53.9871 218.831 54.8631 207.031 56.3592 195.258C59.0869 183.668 62.4194 172.236 66.3567 160.96C71.4677 150.124 77.1411 139.569 83.377 129.294C90.6761 119.699 98.4698 110.498 106.758 101.691C115.951 93.776 125.548 86.3526 135.549 79.4213C146.254 73.5565 157.253 68.2607 168.547 63.534C180.31 60.0044 192.244 57.0966 204.349 54.8105C216.664 53.801 229.018 53.4392 241.409 53.7251C253.74 55.3113 265.973 57.5429 278.108 60.4199C289.911 64.5638 301.483 69.3222 312.822 74.6951C323.57 81.2452 333.961 88.3514 343.996 96.0136C353.201 104.71 361.94 113.879 370.21 123.52C377.449 134.006 384.129 144.858 390.25 156.077C395.179 167.91 399.481 179.987 403.157 192.307C405.531 204.983 407.238 217.766 408.277 230.658C407.961 243.626 406.966 256.561 405.291 269.463C402.268 282.155 398.583 294.673 394.236 307.015C388.607 318.869 382.363 330.413 375.506 341.645C367.488 352.128 358.931 362.177 349.835 371.791C339.755 380.426 329.236 388.52 318.277 396.073C306.555 402.457 294.514 408.217 282.153 413.353C269.287 417.178 256.238 420.323 243.006 422.788C229.55 423.857 216.056 424.219 202.525 423.873C189.066 422.108 175.717 419.64 162.48 416.467C149.61 411.914 136.997 406.691 124.64 400.8C112.935 393.627 101.621 385.85 90.6992 377.469C80.686 367.965 71.1848 357.948 62.1954 347.419C54.3347 335.975 47.0846 324.135 40.4452 311.898C35.107 298.999 30.4523 285.837 26.4812 272.413C23.9284 258.609 22.1026 244.691 21.0039 230.658C21.3793 216.549 22.4937 202.48 24.347 188.45C27.6659 174.654 31.7031 161.051 36.4588 147.642C42.6066 134.77 49.4204 122.239 56.9001 110.048C65.6363 98.6769 74.9562 87.7802 84.8595 77.3581C95.8271 68.0047 107.269 59.2402 119.186 51.0644C131.925 44.1623 145.008 37.9384 158.434 32.3928C172.403 28.2719 186.568 24.8897 200.928 22.2462C215.524 21.117 230.158 20.7552 244.83 21.1607C259.417 23.1044 273.881 25.8104 288.221 29.2787C302.157 34.2415 315.811 39.928 329.186 46.3382C341.849 54.1328 354.085 62.5801 365.894 71.6803C376.715 81.9925 386.979 92.8572 396.687 104.274C405.17 116.676 412.99 129.504 420.148 142.759C425.895 156.725 430.902 170.972 435.169 185.5C437.9 200.432 439.845 215.484 441.004 230.658" stroke="#E7AFB5" stroke-width="10"/>
</g>
<defs>
<filter id="filter0_f_730_1515" x="0" y="0" width="461.988" height="445" filterUnits="userSpaceOnUse" color-interpolation-filters="sRGB">
<feFlood flood-opacity="0" result="BackgroundImageFix"/>
<feBlend mode="normal" in="SourceGraphic" in2="BackgroundImageFix" result="shape"/>
<feGaussianBlur stdDeviation="8" result="effect1_foregroundBlur_730_1515"/>
</filter>
</defs>
</svg>
