<svg width="577" height="555" viewBox="0 0 577 555" fill="none" xmlns="http://www.w3.org/2000/svg">
<g filter="url(#filter0_f_730_1509)">
<path d="M347.507 287.885C347.714 292.774 347.661 297.685 347.348 302.617C346.509 307.536 345.406 312.421 344.04 317.271C342.152 321.994 340.009 326.626 337.612 331.168C334.722 335.471 331.598 339.628 328.241 343.64C324.444 347.31 320.446 350.784 316.246 354.063C311.683 356.907 306.962 359.513 302.081 361.882C296.933 363.74 291.678 365.328 286.316 366.645C280.798 367.398 275.23 367.858 269.615 368.027C263.965 367.6 258.329 366.873 252.707 365.846C247.178 364.219 241.728 362.297 236.357 360.079C231.206 357.285 226.196 354.215 221.328 350.868C216.802 346.996 212.475 342.879 208.348 338.517C204.674 333.708 201.249 328.697 198.075 323.487C195.446 317.928 193.108 312.223 191.061 306.372C189.63 300.292 188.519 294.13 187.729 287.885C187.598 281.543 187.803 275.188 188.343 268.82C189.559 262.496 191.111 256.23 192.998 250.023C195.546 244.003 198.415 238.113 201.604 232.352C205.409 226.919 209.505 221.682 213.891 216.642C218.817 212.057 223.991 207.729 229.41 203.659C235.269 200.154 241.317 196.957 247.555 194.067C254.108 191.833 260.783 189.943 267.582 188.398C274.553 187.569 281.572 187.109 288.64 187.016C295.727 187.67 302.783 188.699 309.809 190.103C316.696 192.251 323.472 194.764 330.14 197.642C336.51 201.228 342.695 205.152 348.693 209.414C354.248 214.315 359.546 219.511 364.588 225.003C369.055 231.032 373.206 237.3 377.04 243.806C380.191 250.723 382.977 257.809 385.4 265.064C387.059 272.581 388.322 280.188 389.188 287.885C389.243 295.679 388.886 303.478 388.118 311.283C386.526 319.012 384.526 326.659 382.117 334.224C378.909 341.539 375.314 348.687 371.332 355.667C366.612 362.231 361.545 368.547 356.131 374.615C350.074 380.115 343.726 385.297 337.087 390.16C329.932 394.324 322.557 398.112 314.961 401.523C307.004 404.134 298.908 406.326 290.673 408.098C282.25 409.003 273.778 409.463 265.258 409.48C256.735 408.598 248.258 407.267 239.827 405.487C231.583 402.818 223.479 399.714 215.516 396.176C207.926 391.798 200.567 387.021 193.438 381.843C186.855 375.914 180.585 369.639 174.628 363.017C169.369 355.768 164.492 348.242 159.997 340.44C156.326 332.165 153.09 323.698 150.291 315.038C148.405 306.085 146.99 297.034 146.048 287.885C146.069 278.639 146.577 269.395 147.573 260.154C149.541 251.02 151.991 241.992 154.92 233.069C158.789 224.458 163.11 216.053 167.883 207.853C173.519 200.159 179.558 192.764 186.001 185.667C193.188 179.252 200.711 173.217 208.569 167.562C217.02 162.737 225.721 158.358 234.675 154.426C244.037 151.439 253.554 148.945 263.225 146.945C273.1 145.964 283.024 145.504 292.997 145.563C302.956 146.672 312.854 148.305 322.69 150.462C332.291 153.652 341.722 157.347 350.98 161.545C359.79 166.715 368.325 172.346 376.583 178.439C384.195 185.396 391.436 192.751 398.309 200.503C404.36 208.972 409.963 217.755 415.118 226.853C419.311 236.485 422.995 246.334 426.171 256.398C428.284 266.788 429.851 277.283 430.869 287.885C430.772 298.583 430.112 309.272 428.889 319.949C426.544 330.487 423.646 340.897 420.195 351.177C415.666 361.084 410.619 370.747 405.053 380.167C398.503 388.991 391.492 397.465 384.021 405.591C375.704 412.921 367.006 419.81 357.927 426.257C348.181 431.742 338.153 436.711 327.842 441.164C317.075 444.528 306.137 447.324 295.03 449.551C283.702 450.608 272.326 451.069 260.901 450.933C249.505 449.596 238.187 447.661 226.947 445.128C215.987 441.417 205.23 437.132 194.676 432.273C184.646 426.311 174.937 419.826 165.548 412.818C156.908 404.833 148.695 396.399 140.907 387.517C134.064 377.828 127.735 367.787 121.92 357.393C117.206 346.403 113.073 335.174 109.521 323.704C107.179 311.879 105.461 299.939 104.366 287.885C104.54 275.734 105.352 263.602 106.803 251.488C109.524 239.545 112.87 227.754 116.843 216.116C122.031 204.914 127.805 193.993 134.163 183.353C141.628 173.399 149.611 163.845 158.11 154.692C167.558 146.446 177.431 138.704 187.729 131.465C198.771 125.319 210.126 119.76 221.795 114.785C233.966 111.045 246.324 107.947 258.868 105.492C271.648 104.359 284.477 103.899 297.354 104.11C310.186 105.675 322.925 107.911 335.57 110.821C347.887 115.054 359.971 119.929 371.821 125.448C383.07 132.202 393.954 139.541 404.474 147.464C414.141 156.478 423.327 165.991 432.03 176.003C439.665 186.911 446.72 198.21 453.196 209.9C458.431 222.247 463.013 234.858 466.941 247.732C469.51 260.994 471.38 274.379 472.551 287.885C472.301 301.488 471.337 315.065 469.659 328.615C466.561 341.963 462.766 355.134 458.273 368.13C452.423 380.629 445.924 392.807 438.774 404.666C430.393 415.751 421.439 426.384 411.911 436.566C401.333 445.726 390.286 454.322 378.768 462.354C366.43 469.159 353.748 475.31 340.722 480.805C327.145 484.922 313.367 488.322 299.387 491.004C285.154 492.213 270.874 492.674 256.544 492.386C242.276 490.594 228.116 488.055 214.066 484.77C200.392 480.016 186.981 474.549 173.835 468.37C161.366 460.824 149.307 452.632 137.658 443.793C126.961 433.751 116.804 423.159 107.186 412.016C98.7587 399.889 90.9773 387.332 83.8419 374.347C78.0855 360.641 73.0549 346.649 68.7501 332.37C65.9539 317.672 63.9322 302.843 62.6851 287.885C63.011 272.829 64.1267 257.808 66.0321 242.822C69.5062 228.069 73.7504 213.516 78.7649 199.163C85.2742 185.369 92.4999 171.932 100.442 158.854C109.738 146.639 119.664 134.927 130.22 123.716C141.928 113.64 154.151 104.191 166.888 95.3675C180.521 87.902 194.53 81.1607 208.914 75.1437C223.896 70.6507 239.094 66.9492 254.511 64.0392C270.196 62.7541 285.929 62.2935 301.711 62.6575C317.415 64.6766 332.995 67.5174 348.45 71.1796C363.482 76.4546 378.22 82.5119 392.662 89.3513C406.35 97.6893 419.584 106.735 432.364 116.489C444.088 127.559 455.217 139.231 465.751 151.504C474.97 164.851 483.478 178.665 491.273 192.946C497.551 208.01 503.03 223.383 507.711 239.066C510.735 255.201 512.909 271.474 514.232 287.885C513.83 304.393 512.562 320.858 510.429 337.281C506.579 353.438 501.886 369.372 496.35 385.084C489.181 400.174 481.229 414.868 472.495 429.166C462.284 442.511 451.386 455.302 439.801 467.541C426.963 478.532 413.566 488.835 399.608 498.451C384.679 506.577 369.344 513.908 353.602 520.447C337.216 525.316 320.597 529.319 303.744 532.457C286.607 533.818 269.421 534.279 252.187 533.839C235.046 531.592 218.046 528.449 201.186 524.411C184.796 518.615 168.732 511.967 152.994 504.467C138.086 495.337 123.677 485.437 109.767 474.769C97.0146 462.67 84.9139 449.919 73.4652 436.516C63.4538 421.949 54.2201 406.877 45.7642 391.3C38.9655 374.879 33.0373 358.125 27.9797 341.036C24.7285 323.465 22.4032 305.748 21.0039 287.885C21.482 269.925 22.9013 252.015 25.2617 234.156C29.4886 216.594 34.6304 199.278 40.6872 182.209C48.517 165.824 57.1949 149.872 66.721 134.354C77.8475 119.879 89.7171 106.008 102.33 92.7412C116.298 80.8348 130.871 69.6779 146.048 59.2705C162.272 50.4845 178.935 42.5618 196.034 35.5025C213.825 30.2567 231.865 25.9514 250.154 22.5863C268.744 21.149 287.381 20.6884 306.067 21.2046C324.645 23.6787 343.066 27.1234 361.33 31.5384C379.078 37.8558 396.469 45.0944 413.502 53.2543C429.63 63.1764 445.214 73.9295 460.254 85.5136C474.035 98.6406 487.108 112.471 499.472 127.004C510.275 142.791 520.235 159.121 529.351 175.993C536.671 193.772 543.048 211.907 548.482 230.4C551.961 249.408 554.438 268.569 555.913 287.885" stroke="#B9D2B2" stroke-width="10"/>
</g>
<defs>
<filter id="filter0_f_730_1509" x="0" y="0" width="576.898" height="555" filterUnits="userSpaceOnUse" color-interpolation-filters="sRGB">
<feFlood flood-opacity="0" result="BackgroundImageFix"/>
<feBlend mode="normal" in="SourceGraphic" in2="BackgroundImageFix" result="shape"/>
<feGaussianBlur stdDeviation="8" result="effect1_foregroundBlur_730_1509"/>
</filter>
</defs>
</svg>
