<svg width="274" height="279" viewBox="0 0 274 279" fill="none" xmlns="http://www.w3.org/2000/svg">
<g filter="url(#filter0_f_720_765)">
<path d="M124.544 31.7852C140.283 5.07871 181.001 14.1148 183.966 44.9719L186.22 68.4371C187.546 82.2368 197.607 93.6134 211.141 96.6168L234.154 101.724C264.417 108.44 268.406 149.958 239.975 162.312L218.355 171.708C205.641 177.233 197.93 190.317 199.256 204.117L201.51 227.582C204.475 258.439 166.221 275.062 145.686 251.841L130.069 234.182C120.885 223.797 106.059 220.507 93.3445 226.033L71.7243 235.428C43.2936 247.783 15.663 216.539 31.4019 189.832L43.3705 169.523C50.4092 157.58 48.9567 142.462 39.7729 132.077L24.1565 114.419C3.62071 91.1974 24.7973 55.2641 55.0602 61.98L78.0736 67.087C91.6076 70.0905 105.536 64.0376 112.575 52.0941L124.544 31.7852Z" fill="#E7AFB5"/>
</g>
<defs>
<filter id="filter0_f_720_765" x="0" y="0" width="275.227" height="278.735" filterUnits="userSpaceOnUse" color-interpolation-filters="sRGB">
<feFlood flood-opacity="0" result="BackgroundImageFix"/>
<feBlend mode="normal" in="SourceGraphic" in2="BackgroundImageFix" result="shape"/>
<feGaussianBlur stdDeviation="8" result="effect1_foregroundBlur_720_765"/>
</filter>
</defs>
</svg>
